<svg xmlns="http://www.w3.org/2000/svg" version="1.1" xmlns:xlink="http://www.w3.org/1999/xlink" xmlns:svgjs="http://svgjs.dev/svgjs" width="2000" height="479" viewBox="0 0 2000 479"><g transform="matrix(1,0,0,1,-1.2121212121212466,-0.6282838077501935)"><svg viewBox="0 0 396 95" data-background-color="#1a365d" preserveAspectRatio="xMidYMid meet" height="479" width="2000" xmlns="http://www.w3.org/2000/svg" xmlns:xlink="http://www.w3.org/1999/xlink"><g id="tight-bounds" transform="matrix(1,0,0,1,0.2400000000000091,0.12460743577508993)"><svg viewBox="0 0 395.52 94.75008175027553" height="94.75008175027553" width="395.52"><g><svg viewBox="0 0 395.52 94.75008175027553" height="94.75008175027553" width="395.52"><g><svg viewBox="0 0 395.52 94.75008175027553" height="94.75008175027553" width="395.52"><g><svg viewBox="0 0 540.7310155241274 129.53657950500755" height="94.75008175027553" width="395.52"><g transform="matrix(1,0,0,1,0,17.902667645048084)"><svg viewBox="0 0 395.52 93.73124421491138" height="93.73124421491138" width="395.52"><g id="textblocktransform"><svg viewBox="0 0 395.52 93.73124421491138" height="93.73124421491138" width="395.52" id="textblock"><g><svg viewBox="0 0 395.52 67.6234522601296" height="67.6234522601296" width="395.52"><g transform="matrix(1,0,0,1,0,0)"><svg width="395.52" viewBox="5.74 -41.85 312.69 53.47" height="67.6234522601296" data-palette-color="#cdedfe"><path d="M5.74 0L5.74-37.35 9.89-37.35 9.89-3.59 24.68-3.59 24.68 0 5.74 0ZM52.05-5.03L53.24-1.54Q48.19 0.49 42.09 0.49L42.09 0.49Q38.55 0.49 36.08-0.24L36.08-0.24Q32.15-1.37 30.86-4.88L30.86-4.88Q29.66-8.18 29.66-14.65L29.66-14.65 29.66-15.89Q29.66-23.63 32.88-26.76L32.88-26.76Q35.79-29.54 42.58-29.54L42.58-29.54Q49.19-29.54 51.61-26.27L51.61-26.27Q52.78-24.68 53.16-22.42 53.54-20.17 53.54-18.12L53.54-18.12Q53.54-14.92 53.39-13.16L53.39-13.16Q49.95-13.01 47.21-13.01L47.21-13.01Q47.21-13.01 43.28-13.01L43.28-13.01Q37.13-13.01 33.81-13.55L33.81-13.55Q33.81-7.93 35.23-5.71L35.23-5.71Q36.96-3 42.14-3 47.31-3 52.05-5.03L52.05-5.03ZM33.81-16.41L49.41-16.41 49.41-18.75Q49.41-22.58 47.92-24.22L47.92-24.22Q46.26-26.05 42.19-26.05L42.19-26.05Q37.3-26.05 35.52-23.93L35.52-23.93Q33.81-21.9 33.81-16.41L33.81-16.41ZM82.49-27.05L82.49-27.05 82.88-29.05 86.4-29.05 86.42-0.54Q86.42 5.74 83.95 8.59L83.95 8.59Q81.32 11.62 75.04 11.62L75.04 11.62Q70.16 11.62 66.38 10.3L66.38 10.3Q65.42 9.99 64.91 9.72L64.91 9.72 66.18 6.27Q66.62 6.42 67.48 6.75 68.33 7.08 69.53 7.4L69.53 7.4Q72.55 8.2 75.08 8.2 77.61 8.2 78.97 7.69 80.34 7.18 81.1 6.1L81.1 6.1Q82.37 4.3 82.37-0.46L82.37-0.46 82.37-2.78Q77.7 0.49 72.5 0.49L72.5 0.49Q66.43 0.49 64.4-3.83L64.4-3.83Q63.23-6.27 63.03-10.01L63.03-10.01Q62.96-11.72 62.96-13.78 62.96-15.84 63-17.94 63.03-20.04 63.3-21.83 63.57-23.61 64.14-25.04 64.72-26.46 65.79-27.47L65.79-27.47Q68.01-29.54 72.64-29.54 77.27-29.54 82.49-27.05ZM82.37-6.08L82.37-23.68Q77.97-25.88 73.87-25.88L73.87-25.88Q70.89-25.88 69.94-25.39 68.99-24.9 68.49-24.12 67.99-23.34 67.67-21.97L67.67-21.97Q67.11-19.41 67.11-13.53L67.11-13.53 67.11-12.99Q67.11-7.57 68.45-5.4L68.45-5.4Q69.79-3.17 73.36-3.17L73.36-3.17 73.73-3.17Q77.09-3.17 80.61-5.03L80.61-5.03Q81.61-5.54 82.37-6.08L82.37-6.08ZM119.33-19.41L119.33-10.3Q119.33-5.44 119.79-0.2L119.79-0.2 116.18 0.1 115.57-3.3Q112.47-0.81 107.37 0.17L107.37 0.17Q105.71 0.49 104.41 0.49 103.12 0.49 102.13 0.37 101.14 0.24 100.22-0.11 99.31-0.46 98.53-1.1 97.75-1.73 97.16-2.78L97.16-2.78Q95.92-5 95.92-8.12 95.92-11.23 96.37-12.95 96.82-14.67 97.87-15.82L97.87-15.82Q99.94-18.09 104.85-18.09 109.76-18.09 115.32-16.24L115.32-16.24 115.32-19.41Q115.32-24.71 110.95-25.68L110.95-25.68Q109.54-26 107.71-26L107.71-26Q103.53-26 99.04-24.34L99.04-24.34 98.14-27.86Q99.38-28.69 104.48-29.35L104.48-29.35Q106.1-29.54 108.35-29.54 110.61-29.54 112.79-29 114.96-28.47 116.4-27.25L116.4-27.25Q119.33-24.83 119.33-19.41L119.33-19.41ZM115.23-13.18L115.23-13.18Q109.51-14.62 104.68-14.62L104.68-14.62Q101.7-14.62 100.72-12.92L100.72-12.92Q100.07-11.72 100.07-9.38 100.07-7.03 100.32-5.98 100.58-4.93 101.16-4.25L101.16-4.25Q102.31-2.95 104.95-2.95L104.95-2.95Q109.07-2.95 113.13-5.08L113.13-5.08Q114.37-5.71 115.37-6.49L115.37-6.49Q115.23-9.13 115.23-13.18ZM131.31 0L131.26-41.5 135.29-41.85 135.29 0 131.31 0ZM159.31-17.21L159.31-37.35 163.41-37.35 163.41-17.38Q163.41-11.47 163.93-9.33 164.44-7.18 165.11-6.09 165.78-5 166.86-4.35L166.86-4.35Q168.88-3.1 172.43-3.1 175.99-3.1 177.78-3.71 179.57-4.32 180.56-5.91 181.55-7.5 181.89-10.28 182.24-13.06 182.24-17.38L182.24-17.38 182.24-37.35 186.34-37.35 186.34-17.53Q186.34-11.25 185.87-8.87 185.41-6.49 184.59-4.83 183.77-3.17 182.28-2L182.28-2Q179.16 0.49 172.96 0.49L172.96 0.49Q163.73 0.49 161.04-4.79L161.04-4.79Q159.56-7.74 159.38-12.6L159.38-12.6Q159.31-14.82 159.31-17.21L159.31-17.21ZM200.89-1.73L200.89-1.73 200.89 11.11 196.83 11.11 196.83-29.05 200.13-29.05 200.59-26.05Q203.45-28.2 208.04-29.2L208.04-29.2Q209.7-29.54 211.65-29.54 213.61-29.54 215.11-29.03 216.61-28.52 217.59-27.6 218.56-26.68 219.1-25.42 219.64-24.15 219.9-22.66L219.9-22.66Q220.25-20.61 220.25-16.11L220.25-16.11 220.25-15.55Q220.25-9.84 219.86-7.64 219.46-5.44 218.83-4.02 218.2-2.59 217.07-1.59L217.07-1.59Q214.75 0.49 209.89 0.49 205.04 0.49 200.89-1.73ZM200.89-22.92L200.89-5.08Q205.04-3.17 209.6-3.17L209.6-3.17Q212.58-3.17 213.95-4.27L213.95-4.27Q215.8-5.79 216.02-11.33L216.02-11.33Q216.1-13.16 216.1-15.53L216.1-15.53 216.1-16.06Q216.1-21.68 215.12-23.58L215.12-23.58Q214.02-25.76 210.58-25.76L210.58-25.76 210.21-25.76Q206.62-25.76 202.77-23.97L202.77-23.97Q201.64-23.46 200.89-22.92L200.89-22.92ZM252.52-19.41L252.52-10.3Q252.52-5.44 252.98-0.2L252.98-0.2 249.37 0.1 248.76-3.3Q245.66-0.81 240.56 0.17L240.56 0.17Q238.9 0.49 237.6 0.49 236.31 0.49 235.32 0.37 234.33 0.24 233.42-0.11 232.5-0.46 231.72-1.1 230.94-1.73 230.35-2.78L230.35-2.78Q229.11-5 229.11-8.12 229.11-11.23 229.56-12.95 230.01-14.67 231.06-15.82L231.06-15.82Q233.13-18.09 238.04-18.09 242.95-18.09 248.52-16.24L248.52-16.24 248.52-19.41Q248.52-24.71 244.15-25.68L244.15-25.68Q242.73-26 240.9-26L240.9-26Q236.72-26 232.23-24.34L232.23-24.34 231.33-27.86Q232.57-28.69 237.68-29.35L237.68-29.35Q239.29-29.54 241.54-29.54 243.8-29.54 245.98-29 248.15-28.47 249.59-27.25L249.59-27.25Q252.52-24.83 252.52-19.41L252.52-19.41ZM248.42-13.18L248.42-13.18Q242.7-14.62 237.87-14.62L237.87-14.62Q234.89-14.62 233.92-12.92L233.92-12.92Q233.26-11.72 233.26-9.38 233.26-7.03 233.51-5.98 233.77-4.93 234.36-4.25L234.36-4.25Q235.5-2.95 238.14-2.95L238.14-2.95Q242.27-2.95 246.32-5.08L246.32-5.08Q247.56-5.71 248.56-6.49L248.56-6.49Q248.42-9.13 248.42-13.18ZM285.82-19.41L285.82-10.3Q285.82-5.44 286.28-0.2L286.28-0.2 282.67 0.1 282.06-3.3Q278.96-0.81 273.85 0.17L273.85 0.17Q272.19 0.49 270.9 0.49 269.61 0.49 268.62 0.37 267.63 0.24 266.71-0.11 265.8-0.46 265.02-1.1 264.24-1.73 263.65-2.78L263.65-2.78Q262.4-5 262.4-8.12 262.4-11.23 262.86-12.95 263.31-14.67 264.36-15.82L264.36-15.82Q266.43-18.09 271.34-18.09 276.25-18.09 281.81-16.24L281.81-16.24 281.81-19.41Q281.81-24.71 277.44-25.68L277.44-25.68Q276.03-26 274.2-26L274.2-26Q270.02-26 265.53-24.34L265.53-24.34 264.63-27.86Q265.87-28.69 270.97-29.35L270.97-29.35Q272.58-29.54 274.84-29.54 277.1-29.54 279.27-29 281.45-28.47 282.89-27.25L282.89-27.25Q285.82-24.83 285.82-19.41L285.82-19.41ZM281.72-13.18L281.72-13.18Q276-14.62 271.17-14.62L271.17-14.62Q268.19-14.62 267.21-12.92L267.21-12.92Q266.55-11.72 266.55-9.38 266.55-7.03 266.81-5.98 267.07-4.93 267.65-4.25L267.65-4.25Q268.8-2.95 271.44-2.95L271.44-2.95Q275.56-2.95 279.62-5.08L279.62-5.08Q280.86-5.71 281.86-6.49L281.86-6.49Q281.72-9.13 281.72-13.18ZM295.14 10.21L296.24 7.03Q298.02 7.67 299.16 7.67 300.29 7.67 300.65 7.6 301 7.54 301.37 7.35L301.37 7.35Q302.22 6.88 302.64 5.83L302.64 5.83Q303.66 3.34 304.42 0.37L304.42 0.37 293.21-29.05 297.73-29.05 305.3-7.64 306.44-3.88 307.49-7.67 314.18-29.05 318.43-29.05 306.18 6.88Q304.83 11.08 299.98 11.08L299.98 11.08Q296.9 11.08 295.14 10.21L295.14 10.21Z" opacity="1" transform="matrix(1,0,0,1,0,0)" fill="#ffffff" class="wordmark-text-0" data-fill-palette-color="primary" id="text-0"></path></svg></g></svg></g><g transform="matrix(1,0,0,1,0,83.58772637589195)"><svg viewBox="0 0 395.52 10.14351783901944" height="10.14351783901944" width="395.52"><g transform="matrix(1,0,0,1,0,0)"><svg width="395.52" viewBox="0.58 -32.65 1303.3200000000002 33.43" height="10.14351783901944" data-palette-color="#cdedfe"><path d="M15.33-26.8L8.47 0 0.58 0 9.73-31.95 21.48-31.95 30.58 0 22.68 0 15.9-26.8 15.33-26.8ZM22.75-13.6L22.75-7.53 8.35-7.53 8.35-13.6 22.75-13.6ZM59.64-31.95L67.46-31.95 67.46 0 59.64 0 59.64-31.95ZM80.79 0L64.09 0 64.09-6.58 80.79-6.58 80.79 0ZM110.58-31.95L118.4-31.95 118.4 0 110.58 0 110.58-31.95ZM131.73 0L115.03 0 115.03-6.58 131.73-6.58 131.73 0ZM197.48-31.95L205.3-31.95 205.3 0 197.48 0 197.48-31.95ZM218.63 0L201.93 0 201.93-6.58 218.63-6.58 218.63 0ZM256.06-31.95L256.06 0 248.41 0 248.41-31.95 256.06-31.95ZM270.79-6.53L270.79 0 250.69 0 250.69-6.53 270.79-6.53ZM270.19-19.35L270.19-13.08 252.89-13.08 252.89-19.35 270.19-19.35ZM270.56-31.95L270.56-25.5 250.66-25.5 250.66-31.95 270.56-31.95ZM311.35 0.7L311.35 0.7Q307.7 0.7 305.24-0.88 302.78-2.45 301.55-5.44 300.33-8.43 300.33-12.63L300.33-12.63 300.33-18.25Q300.33-25.3 304.14-28.98 307.95-32.65 315.28-32.65L315.28-32.65Q317.53-32.65 319.45-32.34 321.38-32.02 322.96-31.53 324.55-31.03 325.73-30.43L325.73-30.43 326.4-23.83Q324.5-24.68 322.16-25.34 319.83-26 316.8-26L316.8-26Q312.4-26 310.35-24.01 308.3-22.03 308.3-17.8L308.3-17.8 308.3-12.55Q308.3-9.4 309.79-7.68 311.28-5.95 314.43-5.95L314.43-5.95Q315.83-5.95 316.86-6.36 317.9-6.78 318.59-7.45 319.28-8.13 319.68-8.95L319.68-8.95 319.68-15.05 320.7-12.75 314.55-12.73 314.55-18.75 327.18-18.75 327.18-5.33 319.53-5.33Q319.15-3.6 318.26-2.24 317.38-0.88 315.71-0.09 314.05 0.7 311.35 0.7ZM327.18 0L319.6 0 319.85-6.58 327.18-6.58 327.18 0ZM370.71-26.8L363.86 0 355.96 0 365.11-31.95 376.86-31.95 385.96 0 378.06 0 371.29-26.8 370.71-26.8ZM378.14-13.6L378.14-7.53 363.74-7.53 363.74-13.6 378.14-13.6ZM415.03-31.95L422.85-31.95 422.85 0 415.03 0 415.03-31.95ZM436.18 0L419.48 0 419.48-6.58 436.18-6.58 436.18 0ZM511.85 0.68L511.85 0.68Q509.63 0.68 507.69 0.39 505.75 0.1 504.17-0.36 502.58-0.83 501.38-1.33L501.38-1.33 500.7-8.53Q502.68-7.6 505.38-6.81 508.08-6.03 511.1-6.03L511.1-6.03Q514.03-6.03 515.27-6.76 516.5-7.5 516.5-9.08L516.5-9.08 516.5-9.25Q516.5-10.3 515.94-10.96 515.38-11.63 514.07-12.19 512.75-12.75 510.53-13.4L510.53-13.4Q507.18-14.4 504.94-15.63 502.7-16.85 501.6-18.69 500.5-20.53 500.5-23.35L500.5-23.35 500.5-23.68Q500.5-28.03 503.47-30.33 506.43-32.63 512.18-32.63L512.18-32.63Q515.63-32.63 518.14-32.02 520.65-31.43 522.4-30.6L522.4-30.6 523.08-23.9Q521.15-24.83 518.72-25.46 516.28-26.1 513.5-26.1L513.5-26.1Q511.55-26.1 510.44-25.78 509.33-25.45 508.88-24.84 508.43-24.23 508.43-23.35L508.43-23.35 508.43-23.25Q508.43-22.35 508.94-21.68 509.45-21 510.79-20.38 512.13-19.75 514.6-19.03L514.6-19.03Q517.93-18.05 520.12-16.94 522.3-15.83 523.39-14.06 524.48-12.3 524.48-9.38L524.48-9.38 524.48-8.97Q524.48-4.15 521.35-1.74 518.23 0.68 511.85 0.68ZM567.49 0.78L567.49 0.78Q560.52 0.78 557.03-2.73 553.54-6.23 553.54-12.8L553.54-12.8 553.54-18.88Q553.54-25.48 557.05-29.06 560.57-32.65 567.49-32.65L567.49-32.65Q574.42-32.65 577.93-29.06 581.44-25.48 581.44-18.88L581.44-18.88 581.44-12.8Q581.44-6.23 577.94-2.73 574.44 0.78 567.49 0.78ZM567.49-5.68L567.49-5.68Q570.52-5.68 571.99-7.45 573.47-9.22 573.47-12.43L573.47-12.43 573.47-19.28Q573.47-22.63 571.99-24.43 570.52-26.23 567.49-26.23L567.49-26.23Q564.47-26.23 562.99-24.43 561.52-22.63 561.52-19.28L561.52-19.28 561.52-12.43Q561.52-9.22 562.99-7.45 564.47-5.68 567.49-5.68ZM611.85-31.95L619.68-31.95 619.68 0 611.85 0 611.85-31.95ZM633 0L616.3 0 616.3-6.58 633-6.58 633 0ZM675.97 0.78L675.97 0.78Q669.12 0.78 665.83-2.54 662.54-5.85 662.54-12.25L662.54-12.25 662.54-31.95 670.39-31.95 670.39-12.1Q670.39-9 671.73-7.41 673.07-5.83 675.97-5.83L675.97-5.83Q678.89-5.83 680.22-7.41 681.54-9 681.54-12.1L681.54-12.1 681.54-31.95 689.39-31.95 689.39-12.25Q689.39-5.85 686.13-2.54 682.87 0.78 675.97 0.78ZM735.58-30.45L735.58 0 727.75 0 727.75-30.45 735.58-30.45ZM744.38-31.95L744.38-25.43 718.93-25.43 718.93-31.95 744.38-31.95ZM774.17-31.95L782.02-31.95 782.02 0 774.17 0 774.17-31.95ZM826.38 0.78L826.38 0.78Q819.41 0.78 815.92-2.73 812.43-6.23 812.43-12.8L812.43-12.8 812.43-18.88Q812.43-25.48 815.94-29.06 819.46-32.65 826.38-32.65L826.38-32.65Q833.31-32.65 836.82-29.06 840.33-25.48 840.33-18.88L840.33-18.88 840.33-12.8Q840.33-6.23 836.83-2.73 833.33 0.78 826.38 0.78ZM826.38-5.68L826.38-5.68Q829.41-5.68 830.88-7.45 832.36-9.22 832.36-12.43L832.36-12.43 832.36-19.28Q832.36-22.63 830.88-24.43 829.41-26.23 826.38-26.23L826.38-26.23Q823.36-26.23 821.88-24.43 820.41-22.63 820.41-19.28L820.41-19.28 820.41-12.43Q820.41-9.22 821.88-7.45 823.36-5.68 826.38-5.68ZM870.74 0L870.74-31.98 881.52-31.98 890.17-8.53 890.52-8.53 890.17-22.03 890.17-31.98 897.62-31.98 897.62 0 887.14 0 878.17-23.98 877.84-23.98 878.19-10.18 878.19 0 870.74 0ZM938.91 0.68L938.91 0.68Q936.68 0.68 934.74 0.39 932.81 0.1 931.22-0.36 929.63-0.83 928.43-1.33L928.43-1.33 927.76-8.53Q929.73-7.6 932.43-6.81 935.13-6.03 938.16-6.03L938.16-6.03Q941.08-6.03 942.32-6.76 943.56-7.5 943.56-9.08L943.56-9.08 943.56-9.25Q943.56-10.3 942.99-10.96 942.43-11.63 941.12-12.19 939.81-12.75 937.58-13.4L937.58-13.4Q934.23-14.4 931.99-15.63 929.76-16.85 928.66-18.69 927.56-20.53 927.56-23.35L927.56-23.35 927.56-23.68Q927.56-28.03 930.52-30.33 933.48-32.63 939.23-32.63L939.23-32.63Q942.68-32.63 945.19-32.02 947.71-31.43 949.46-30.6L949.46-30.6 950.13-23.9Q948.21-24.83 945.77-25.46 943.33-26.1 940.56-26.1L940.56-26.1Q938.61-26.1 937.49-25.78 936.38-25.45 935.93-24.84 935.48-24.23 935.48-23.35L935.48-23.35 935.48-23.25Q935.48-22.35 935.99-21.68 936.51-21 937.84-20.38 939.18-19.75 941.66-19.03L941.66-19.03Q944.98-18.05 947.17-16.94 949.36-15.83 950.44-14.06 951.53-12.3 951.53-9.38L951.53-9.38 951.53-8.97Q951.53-4.15 948.41-1.74 945.28 0.68 938.91 0.68ZM1030.51 0.78L1030.51 0.78Q1023.53 0.78 1020.04-2.73 1016.56-6.23 1016.56-12.8L1016.56-12.8 1016.56-18.88Q1016.56-25.48 1020.07-29.06 1023.58-32.65 1030.51-32.65L1030.51-32.65Q1037.43-32.65 1040.94-29.06 1044.46-25.48 1044.46-18.88L1044.46-18.88 1044.46-12.8Q1044.46-6.23 1040.96-2.73 1037.46 0.78 1030.51 0.78ZM1030.51-5.68L1030.51-5.68Q1033.53-5.68 1035.01-7.45 1036.48-9.22 1036.48-12.43L1036.48-12.43 1036.48-19.28Q1036.48-22.63 1035.01-24.43 1033.53-26.23 1030.51-26.23L1030.51-26.23Q1027.48-26.23 1026.01-24.43 1024.53-22.63 1024.53-19.28L1024.53-19.28 1024.53-12.43Q1024.53-9.22 1026.01-7.45 1027.48-5.68 1030.51-5.68ZM1074.87 0L1074.87-31.98 1085.64-31.98 1094.29-8.53 1094.64-8.53 1094.29-22.03 1094.29-31.98 1101.74-31.98 1101.74 0 1091.27 0 1082.29-23.98 1081.97-23.98 1082.32-10.18 1082.32 0 1074.87 0ZM1133.11-31.95L1140.93-31.95 1140.93 0 1133.11 0 1133.11-31.95ZM1154.26 0L1137.56 0 1137.56-6.58 1154.26-6.58 1154.26 0ZM1184.04-31.95L1191.89-31.95 1191.89 0 1184.04 0 1184.04-31.95ZM1223.28 0L1223.28-31.98 1234.06-31.98 1242.71-8.53 1243.06-8.53 1242.71-22.03 1242.71-31.98 1250.16-31.98 1250.16 0 1239.68 0 1230.71-23.98 1230.38-23.98 1230.73-10.18 1230.73 0 1223.28 0ZM1289.17-31.95L1289.17 0 1281.52 0 1281.52-31.95 1289.17-31.95ZM1303.9-6.53L1303.9 0 1283.8 0 1283.8-6.53 1303.9-6.53ZM1303.3-19.35L1303.3-13.08 1286-13.08 1286-19.35 1303.3-19.35ZM1303.67-31.95L1303.67-25.5 1283.77-25.5 1283.77-31.95 1303.67-31.95Z" opacity="1" transform="matrix(1,0,0,1,0,0)" fill="#ffffff" class="slogan-text-1" data-fill-palette-color="secondary" id="text-1"></path></svg></g></svg></g></svg></g></svg></g><g transform="matrix(1,0,0,1,411.48427411576233,0)"><svg viewBox="0 0 129.2467414083651 129.53657950500755" height="129.53657950500755" width="129.2467414083651"><g><svg xmlns="http://www.w3.org/2000/svg" xmlns:xlink="http://www.w3.org/1999/xlink" version="1.1" x="0" y="0" viewBox="9.974 10 79.821 80" style="enable-background:new 0 0 100 100;" xml:space="preserve" height="129.53657950500755" width="129.2467414083651" class="icon-icon-0" data-fill-palette-color="accent" id="icon-0"><path d="M31.132 62.004H43.586A3.27 3.27 0 0 0 46.853 58.737V55.402A1 1 0 0 0 45.853 54.402H43.614L38.21 36.282A24 24 0 0 0 39.795 35.416C45.192 32.178 50.092 31.956 52.005 32.018V64.606H47.41A3.29 3.29 0 0 0 44.126 67.89V72.083A1 1 0 0 0 45.126 73.083H60.885A1 1 0 0 0 61.885 72.083V67.89A3.29 3.29 0 0 0 58.6 64.606H54.005V32.016C55.911 31.951 60.792 32.162 66.215 35.416 66.62 35.659 67.012 35.874 67.397 36.076L61.931 54.403H60.39A1 1 0 0 0 59.39 55.402V58.737A3.27 3.27 0 0 0 62.656 62.004H75.109A3.27 3.27 0 0 0 78.375 58.737V55.402A1 1 0 0 0 77.375 54.402H75.137L70.02 37.242C71.88 37.904 73.415 38.1 74.567 38.1 76.094 38.1 76.955 37.762 77.03 37.73A1 1 0 0 0 76.27 35.881C76.237 35.895 72.914 37.103 67.245 33.701 61.443 30.22 56.232 29.938 54.005 30.011V27.917A1 1 0 0 0 52.005 27.917V30.01C49.78 29.94 44.567 30.22 38.766 33.701 33.096 37.104 29.766 35.89 29.743 35.881A1.001 1.001 0 0 0 28.98 37.731C29.057 37.762 29.917 38.101 31.443 38.101 32.486 38.1 33.85 37.929 35.477 37.407L30.408 54.402H28.866A1 1 0 0 0 27.866 55.402V58.737A3.27 3.27 0 0 0 31.132 62.004M59.885 67.89V71.083H46.126V67.89C46.126 67.182 46.702 66.606 47.41 66.606H58.6C59.31 66.606 59.886 67.182 59.886 67.89M76.375 58.737C76.375 59.436 75.808 60.004 75.11 60.004H62.656A1.27 1.27 0 0 1 61.389 58.737V56.402H76.375zM64.02 54.402L68.534 39.262 73.05 54.402zM37.01 39.262L41.527 54.402H32.496zM29.866 56.402H44.853V58.737C44.853 59.436 44.284 60.004 43.586 60.004H31.132A1.27 1.27 0 0 1 29.866 58.737z" fill="#ffffff" data-fill-palette-color="accent"></path><path d="M10.974 90A1 1 0 0 0 11.974 89V71.361H23.484C30.158 80.511 40.953 86.471 53.12 86.471 73.343 86.47 89.795 70.017 89.795 49.794S73.343 13.121 53.121 13.121C41.109 13.12 30.428 18.925 23.735 27.876 23.709 27.874 23.687 27.861 23.66 27.861H11.974V11A1 1 0 0 0 9.974 11V89A1 1 0 0 0 10.974 90M53.12 15.12C72.24 15.12 87.795 30.677 87.795 49.796S72.24 84.47 53.121 84.47 18.446 68.915 18.446 49.795 34.001 15.121 53.121 15.121M22.36 29.862A36.45 36.45 0 0 0 16.446 49.795C16.446 56.986 18.535 63.695 22.125 69.361H11.974V29.861z" fill="#ffffff" data-fill-palette-color="accent"></path></svg></g></svg></g></svg></g></svg></g></svg></g><defs></defs></svg><rect width="395.52" height="94.75008175027553" fill="none" stroke="none" visibility="hidden"></rect></g></svg></g></svg>